refGRF
version=1
nRows=24
nColumns=19
inDegrees=no
endheader
time	ground_force_r_vx	ground_force_r_vy	ground_force_r_vz	ground_force_l_vx	ground_force_l_vy	ground_force_l_vz	ground_force_r_px	ground_force_r_py	ground_force_r_pz	ground_force_l_px	ground_force_l_py	ground_force_l_pz	ground_torque_r_x	ground_torque_r_y	ground_torque_r_z	ground_torque_l_x	ground_torque_l_y	ground_torque_l_z
      0.37700000	    -96.53094269	   1548.09648950	    -88.47913401	      0.00000000	      0.00000000	      0.00000000	   -820.67748512	      0.00000000	    535.10615192	   2706.00000000	      0.00000000	    600.00000000	    -84.45974604	  -1873.55371498	     56.11439547	      0.00000000	      0.00000000	      0.00000000
      0.37800000	   -114.18114245	   1589.87158666	    -89.53553435	      0.00000000	      0.00000000	      0.00000000	   -819.78882498	      0.00000000	    534.53277524	   2706.00000000	      0.00000000	    600.00000000	   -123.41385363	  -1013.74114796	     12.65074813	      0.00000000	      0.00000000	      0.00000000
      0.37900000	   -133.75009887	   1630.53123451	    -90.47476504	      0.00000000	      0.00000000	      0.00000000	   -818.85056772	      0.00000000	    533.97085446	   2706.00000000	      0.00000000	    600.00000000	   -170.81709584	    -46.65380682	    -30.04926362	      0.00000000	      0.00000000	      0.00000000
      0.38000000	   -153.93492173	   1669.55669013	    -90.87137424	      0.00000000	      0.00000000	      0.00000000	   -817.88536319	      0.00000000	    533.40835804	   2706.00000000	      0.00000000	    600.00000000	   -231.82854646	   1016.42740253	    -72.18747297	      0.00000000	      0.00000000	      0.00000000
      0.38100000	   -173.53483535	   1706.47586068	    -90.34610152	      0.00000000	      0.00000000	      0.00000000	   -816.91322682	      0.00000000	    532.83674165	   2706.00000000	      0.00000000	    600.00000000	   -309.57149366	   2160.45115017	   -113.15168751	      0.00000000	      0.00000000	      0.00000000
      0.38200000	   -191.50223659	   1740.87266349	    -88.58396780	      0.00000000	      0.00000000	      0.00000000	   -815.95044809	      0.00000000	    532.25044053	   2706.00000000	      0.00000000	    600.00000000	   -404.99883314	   3368.16446406	   -151.57807002	      0.00000000	      0.00000000	      0.00000000
      0.38300000	   -206.98094009	   1772.41897344	    -85.35122635	      0.00000000	      0.00000000	      0.00000000	   -815.00943999	      0.00000000	    531.64606247	   2706.00000000	      0.00000000	    600.00000000	   -516.99123752	   4621.88632451	   -185.51616627	      0.00000000	      0.00000000	      0.00000000
      0.38400000	   -219.33532216	   1800.90632657	    -80.50727254	      0.00000000	      0.00000000	      0.00000000	   -814.09897960	      0.00000000	    531.02294653	   2706.00000000	      0.00000000	    600.00000000	   -642.64614154	   5904.88241852	   -212.64273503	      0.00000000	      0.00000000	      0.00000000
      0.38500000	   -228.17002935	   1826.25716583	    -74.00943437	      0.00000000	      0.00000000	      0.00000000	   -813.22550298	      0.00000000	    530.38351597	   2706.00000000	      0.00000000	    600.00000000	   -777.69370352	   7201.79593938	   -230.50048528	      0.00000000	      0.00000000	      0.00000000
      0.38600000	   -233.33345865	   1848.53237100	    -65.91229468	      0.00000000	      0.00000000	      0.00000000	   -812.39499547	      0.00000000	    529.73307893	   2706.00000000	      0.00000000	    600.00000000	   -917.02176359	   8499.07283346	   -236.75403994	      0.00000000	      0.00000000	      0.00000000
      0.38700000	   -234.90090436	   1867.92098313	    -56.36081289	      0.00000000	      0.00000000	      0.00000000	   -811.61289640	      0.00000000	    529.07890023	   2706.00000000	      0.00000000	    600.00000000	  -1055.30577931	   9786.25347598	   -229.42638503	      0.00000000	      0.00000000	      0.00000000
      0.38800000	   -233.14395668	   1884.71379946	    -45.58268387	      0.00000000	      0.00000000	      0.00000000	   -810.88212167	      0.00000000	    528.42956811	   2706.00000000	      0.00000000	    600.00000000	  -1187.49374748	  11055.77147816	   -207.15278795	      0.00000000	      0.00000000	      0.00000000
      0.38900000	   -228.49027137	   1899.27230760	    -33.87471214	      0.00000000	      0.00000000	      0.00000000	   -810.20315448	      0.00000000	    527.79447913	   2706.00000000	      0.00000000	    600.00000000	  -1309.13044263	  12301.58734059	   -169.38579067	      0.00000000	      0.00000000	      0.00000000
      0.39000000	   -221.47501649	   1912.00303798	    -21.58341004	      0.00000000	      0.00000000	      0.00000000	   -809.57480395	      0.00000000	    527.18334923	   2706.00000000	      0.00000000	    600.00000000	  -1416.60655465	  13518.39054855	   -116.50188826	      0.00000000	      0.00000000	      0.00000000
      0.39100000	   -212.69022537	   1923.32301615	     -9.08147768	      0.00000000	      0.00000000	      0.00000000	   -808.99393856	      0.00000000	    526.60466763	   2706.00000000	      0.00000000	    600.00000000	  -1507.36621485	  14701.66302949	    -49.79059417	      0.00000000	      0.00000000	      0.00000000
      0.39200000	   -202.73387394	   1933.62570398	      3.25464337	      0.00000000	      0.00000000	      0.00000000	   -808.45556500	      0.00000000	    526.06511856	   2706.00000000	      0.00000000	    600.00000000	  -1579.88500145	  15846.63989936	     28.58728014	      0.00000000	      0.00000000	      0.00000000
      0.39300000	   -192.16602936	   1943.25189738	     15.06944852	      0.00000000	      0.00000000	      0.00000000	   -807.95325877	      0.00000000	    525.56935615	   2706.00000000	      0.00000000	    600.00000000	  -1633.56629272	  16947.50639374	    115.75690844	      0.00000000	      0.00000000	      0.00000000
      0.39400000	   -181.47599556	   1952.47561286	     26.05033875	      0.00000000	      0.00000000	      0.00000000	   -807.47960154	      0.00000000	    525.11971065	   2706.00000000	      0.00000000	    600.00000000	  -1668.66751987	  17997.97311755	    208.37680907	      0.00000000	      0.00000000	      0.00000000
      0.39500000	   -171.05733682	   1961.50444463	     35.93966121	      0.00000000	      0.00000000	      0.00000000	   -807.02668504	      0.00000000	    524.71609550	   2706.00000000	      0.00000000	    600.00000000	  -1686.11521015	  18991.61101910	    302.84125280	      0.00000000	      0.00000000	      0.00000000
      0.39600000	   -161.19056897	   1970.47862042	     44.54474582	      0.00000000	      0.00000000	      0.00000000	   -806.58668770	      0.00000000	    524.35667663	   2706.00000000	      0.00000000	    600.00000000	  -1687.25010783	  19922.10623990	    395.52561558	      0.00000000	      0.00000000	      0.00000000
      0.39700000	   -152.03738796	   1979.47101636	     51.74460972	      0.00000000	      0.00000000	      0.00000000	   -806.15298584	      0.00000000	    524.03903326	   2706.00000000	      0.00000000	    600.00000000	  -1673.61951997	  20784.12387394	    483.06176051	      0.00000000	      0.00000000	      0.00000000
      0.39800000	   -143.64824184	   1988.49011073	     57.48999466	      0.00000000	      0.00000000	      0.00000000	   -805.72116223	      0.00000000	    523.76007727	   2706.00000000	      0.00000000	    600.00000000	  -1646.82966520	  21574.05257996	    562.55734116	      0.00000000	      0.00000000	      0.00000000
      0.39900000	   -135.97565547	   1997.48771660	     61.80104889	      0.00000000	      0.00000000	      0.00000000	   -805.28905654	      0.00000000	    523.51598616	   2706.00000000	      0.00000000	    600.00000000	  -1608.36779326	  22289.86152362	    631.76830531	      0.00000000	      0.00000000	      0.00000000
      0.40000000	   -128.89556678	   2006.37082701	     64.76528254	      0.00000000	      0.00000000	      0.00000000	   -804.85516249	      0.00000000	    523.30367800	   2706.00000000	      0.00000000	    600.00000000	  -1559.46446376	  22929.93032055	    689.23594412	      0.00000000	      0.00000000	      0.00000000
